<svg width="44" height="44" viewBox="0 0 44 44" fill="none" xmlns="http://www.w3.org/2000/svg">
<g filter="url(#filter0_b_77_313)">
<path fill-rule="evenodd" clip-rule="evenodd" d="M18.6672 33.4391V29.4464C18.6672 28.4309 19.4951 27.6057 20.5209 27.5989H24.2784C25.3091 27.5989 26.1446 28.426 26.1446 29.4464V33.4515C26.1444 34.3137 26.8395 35.0184 27.7102 35.0386H30.2152C32.7124 35.0386 34.7367 33.0346 34.7367 30.5624V19.2043C34.7234 18.2318 34.2621 17.3185 33.4842 16.7244L24.9172 9.89222C23.4163 8.70259 21.2828 8.70259 19.782 9.89222L11.2525 16.7368C10.4716 17.3285 10.0096 18.2433 10 19.2167V30.5624C10 33.0346 12.0243 35.0386 14.5215 35.0386H17.0265C17.9188 35.0386 18.6422 34.3225 18.6422 33.4391" fill="#DADADA" fill-opacity="0.2"/>
<path d="M18.6672 33.4391V29.4464C18.6672 28.4309 19.4951 27.6057 20.5209 27.5989H24.2784C25.3091 27.5989 26.1446 28.426 26.1446 29.4464V29.4464V33.4515C26.1444 34.3137 26.8395 35.0184 27.7102 35.0386H30.2152C32.7124 35.0386 34.7367 33.0346 34.7367 30.5624V30.5624V19.2043C34.7234 18.2318 34.2621 17.3185 33.4842 16.7244L24.9172 9.89222C23.4163 8.70259 21.2828 8.70259 19.782 9.89222L11.2525 16.7368C10.4716 17.3285 10.0096 18.2433 10 19.2167V30.5624C10 33.0346 12.0243 35.0386 14.5215 35.0386H17.0265C17.9188 35.0386 18.6422 34.3225 18.6422 33.4391V33.4391" stroke="url(#paint0_linear_77_313)" stroke-width="1.5" stroke-linecap="round" stroke-linejoin="round"/>
</g>
<defs>
<filter id="filter0_b_77_313" x="4.44" y="3.44" width="35.8568" height="37.1587" filterUnits="userSpaceOnUse" color-interpolation-filters="sRGB">
<feFlood flood-opacity="0" result="BackgroundImageFix"/>
<feGaussianBlur in="BackgroundImageFix" stdDeviation="2.405"/>
<feComposite in2="SourceAlpha" operator="in" result="effect1_backgroundBlur_77_313"/>
<feBlend mode="normal" in="SourceGraphic" in2="effect1_backgroundBlur_77_313" result="shape"/>
</filter>
<linearGradient id="paint0_linear_77_313" x1="13.9377" y1="12.0335" x2="30.7068" y2="31.7641" gradientUnits="userSpaceOnUse">
<stop stop-color="white" stop-opacity="0.25"/>
<stop offset="1" stop-color="white" stop-opacity="0"/>
</linearGradient>
</defs>
</svg>
